# This file uses centimeters as units for non-parametric coordinates.

mtllib Gems.mtl
g default
v -14.615663 3.563773 -0.110230
v -14.123425 1.877951 0.976644
v -12.081200 1.794648 0.976644
v -11.711028 3.537519 -0.110230
v -11.087874 0.741702 0.976644
v -9.811278 1.444787 -0.110230
v -16.465857 1.410821 -0.110230
v -15.157220 0.774110 0.976644
v -16.442660 -1.481996 -0.110230
v -15.288105 -0.771883 0.976644
v -14.585055 -3.636016 -0.110230
v -14.107371 -2.161154 0.976644
v -11.721020 -3.573159 -0.110230
v -12.116042 -2.160279 0.976644
v -9.969675 -1.480479 -0.110230
v -11.016523 -0.771806 0.976644
v -14.123425 1.877951 -1.197105
v -12.081200 1.794648 -1.197105
v -11.087874 0.741702 -1.197105
v -15.157220 0.774110 -1.197105
v -15.288105 -0.771883 -1.197105
v -14.107371 -2.161154 -1.197105
v -12.116042 -2.160279 -1.197105
v -11.016523 -0.771806 -1.197105
vt 0.324886 0.926778
vt 0.383242 0.726919
vt 0.625354 0.717043
vt 0.669239 0.923665
vt 0.743116 0.592213
vt 0.894460 0.675566
vt 0.260683 0.596055
vt 0.105540 0.671539
vt 0.245166 0.412773
vt 0.108290 0.328587
vt 0.385146 0.248071
vt 0.328515 0.073222
vt 0.621223 0.248175
vt 0.668054 0.080674
vt 0.875681 0.328767
vt 0.751575 0.412783
vt 0.324886 0.926778
vt 0.383242 0.726919
vt 0.625354 0.717043
vt 0.669239 0.923665
vt 0.743116 0.592213
vt 0.894460 0.675566
vt 0.260683 0.596055
vt 0.105540 0.671539
vt 0.245166 0.412773
vt 0.108290 0.328587
vt 0.385146 0.248071
vt 0.328515 0.073222
vt 0.621223 0.248175
vt 0.668054 0.080674
vt 0.875681 0.328767
vt 0.751575 0.412783
vn 0.011864 0.535710 0.844319
vn 0.011864 0.535710 0.844319
vn 0.011864 0.535710 0.844319
vn 0.011864 0.535710 0.844319
vn 0.444612 0.408909 0.796940
vn 0.444612 0.408909 0.796940
vn 0.444612 0.408909 0.796940
vn 0.444612 0.408909 0.796940
vn -0.450223 0.398686 0.798967
vn -0.450223 0.398686 0.798967
vn -0.450223 0.398686 0.798967
vn -0.450223 0.398686 0.798967
vn -0.661864 0.016057 0.749451
vn -0.661865 0.016057 0.749451
vn -0.661864 0.016057 0.749451
vn -0.661864 0.016057 0.749451
vn -0.480213 -0.411778 0.774490
vn -0.480213 -0.411778 0.774490
vn -0.480213 -0.411778 0.774490
vn -0.480213 -0.411778 0.774490
vn 0.007896 -0.601531 0.798810
vn 0.007896 -0.601531 0.798810
vn 0.007896 -0.601531 0.798810
vn 0.007896 -0.601531 0.798810
vn 0.512327 -0.419566 0.749323
vn 0.512327 -0.419566 0.749323
vn 0.512327 -0.419566 0.749323
vn 0.512327 -0.419566 0.749323
vn 0.683113 -0.013396 0.730190
vn 0.683113 -0.013396 0.730190
vn 0.683113 -0.013396 0.730190
vn 0.683113 -0.013396 0.730190
vn 0.000000 -0.000000 1.000000
vn 0.000000 -0.000000 1.000000
vn 0.000000 -0.000000 1.000000
vn 0.000000 -0.000000 1.000000
vn 0.000000 0.000000 1.000000
vn 0.000000 0.000000 1.000000
vn 0.000000 0.000000 1.000000
vn 0.000000 0.000000 1.000000
vn 0.000000 -0.000000 1.000000
vn 0.000000 -0.000000 1.000000
vn 0.000000 -0.000000 1.000000
vn 0.000000 -0.000000 1.000000
vn 0.011864 0.535710 -0.844319
vn 0.011864 0.535710 -0.844319
vn 0.011864 0.535710 -0.844319
vn 0.011864 0.535710 -0.844319
vn 0.444612 0.408909 -0.796940
vn 0.444612 0.408909 -0.796940
vn 0.444612 0.408909 -0.796940
vn 0.444612 0.408909 -0.796940
vn -0.450223 0.398686 -0.798967
vn -0.450223 0.398686 -0.798967
vn -0.450223 0.398686 -0.798967
vn -0.450223 0.398686 -0.798967
vn -0.661865 0.016057 -0.749451
vn -0.661864 0.016057 -0.749451
vn -0.661865 0.016057 -0.749451
vn -0.661865 0.016057 -0.749451
vn -0.480213 -0.411778 -0.774490
vn -0.480213 -0.411778 -0.774490
vn -0.480213 -0.411778 -0.774490
vn -0.480213 -0.411778 -0.774490
vn 0.007896 -0.601531 -0.798810
vn 0.007896 -0.601531 -0.798810
vn 0.007896 -0.601531 -0.798810
vn 0.007896 -0.601531 -0.798810
vn 0.512327 -0.419566 -0.749323
vn 0.512327 -0.419566 -0.749323
vn 0.512327 -0.419566 -0.749323
vn 0.512327 -0.419566 -0.749323
vn 0.683113 -0.013396 -0.730190
vn 0.683113 -0.013396 -0.730190
vn 0.683113 -0.013396 -0.730190
vn 0.683113 -0.013396 -0.730190
vn 0.000000 -0.000000 -1.000000
vn 0.000000 -0.000000 -1.000000
vn 0.000000 -0.000000 -1.000000
vn 0.000000 -0.000000 -1.000000
vn 0.000000 0.000000 -1.000000
vn 0.000000 0.000000 -1.000000
vn 0.000000 0.000000 -1.000000
vn 0.000000 0.000000 -1.000000
vn 0.000000 -0.000000 -1.000000
vn 0.000000 -0.000000 -1.000000
vn 0.000000 -0.000000 -1.000000
vn 0.000000 -0.000000 -1.000000
s off
g polySurface1
usemtl gem11
f 1/1/1 2/2/2 3/3/3 4/4/4
f 3/3/5 5/5/6 6/6/7 4/4/8
f 8/7/9 2/2/10 1/1/11 7/8/12
f 10/9/13 8/7/14 7/8/15 9/10/16
f 12/11/17 10/9/18 9/10/19 11/12/20
f 14/13/21 12/11/22 11/12/23 13/14/24
f 13/14/25 15/15/26 16/16/27 14/13/28
f 5/5/29 16/16/30 15/15/31 6/6/32
f 3/3/33 2/2/34 8/7/35 5/5/36
f 5/5/37 8/7/38 10/9/39 16/16/40
f 12/11/41 14/13/42 16/16/43 10/9/44
f 1/17/45 4/20/46 18/19/47 17/18/48
f 18/19/49 4/20/50 6/22/51 19/21/52
f 20/23/53 7/24/54 1/17/55 17/18/56
f 21/25/57 9/26/58 7/24/59 20/23/60
f 22/27/61 11/28/62 9/26/63 21/25/64
f 23/29/65 13/30/66 11/28/67 22/27/68
f 13/30/69 23/29/70 24/32/71 15/31/72
f 19/21/73 6/22/74 15/31/75 24/32/76
f 18/19/77 19/21/78 20/23/79 17/18/80
f 19/21/81 24/32/82 21/25/83 20/23/84
f 22/27/85 21/25/86 24/32/87 23/29/88
g default
v 3.977062 2.770093 0.945689
v 3.926256 4.437343 -0.000000
v 0.551543 2.094086 0.000000
v 1.898695 1.401492 0.945689
v 6.029539 1.355335 0.945689
v 7.362075 2.023310 -0.000000
v 6.052257 -1.582105 0.945689
v 7.453324 -2.061283 -0.000000
v 3.978364 -2.898661 0.945689
v 3.937888 -4.461082 -0.000000
v 1.888132 -1.467293 0.945689
v 0.487621 -2.034924 -0.000000
v 3.977062 2.770093 -0.945689
v 1.898695 1.401492 -0.945689
v 6.029539 1.355335 -0.945689
v 6.052257 -1.582105 -0.945689
v 3.978364 -2.898661 -0.945689
v 1.888132 -1.467293 -0.945689
vt 0.502343 0.769825
vt 0.497302 0.935265
vt 0.162431 0.702745
vt 0.296108 0.634019
vt 0.706010 0.629439
vt 0.838236 0.695722
vt 0.708264 0.337958
vt 0.847291 0.290410
vt 0.502473 0.207317
vt 0.498456 0.057856
vt 0.295060 0.349351
vt 0.156088 0.298603
vt 0.502343 0.769825
vt 0.497302 0.935265
vt 0.162431 0.702745
vt 0.296108 0.634019
vt 0.706010 0.629439
vt 0.838236 0.695722
vt 0.708264 0.337958
vt 0.847291 0.290410
vt 0.502473 0.207317
vt 0.498456 0.057856
vt 0.295060 0.349351
vt 0.156088 0.298603
vn -0.319864 0.469912 0.822721
vn -0.319864 0.469912 0.822721
vn -0.319864 0.469912 0.822721
vn -0.319864 0.469912 0.822721
vn 0.332506 0.476623 0.813800
vn 0.332506 0.476623 0.813800
vn 0.332506 0.476623 0.813800
vn 0.332506 0.476623 0.813800
vn 0.568528 0.009227 0.822612
vn 0.568528 0.009227 0.822612
vn 0.568528 0.009227 0.822612
vn 0.568528 0.009227 0.822612
vn 0.338049 -0.508419 0.791980
vn 0.338049 -0.508419 0.791980
vn 0.338049 -0.508419 0.791980
vn 0.338049 -0.508419 0.791980
vn -0.338556 -0.486263 0.805561
vn -0.338556 -0.486263 0.805561
vn -0.338556 -0.486263 0.805561
vn -0.338556 -0.486263 0.805561
vn -0.566813 0.006033 0.823825
vn -0.566813 0.006033 0.823825
vn -0.566813 0.006033 0.823825
vn -0.566813 0.006033 0.823825
vn 0.000000 0.000000 1.000000
vn 0.000000 0.000000 1.000000
vn 0.000000 0.000000 1.000000
vn 0.000000 0.000000 1.000000
vn 0.000000 -0.000000 1.000000
vn 0.000000 -0.000000 1.000000
vn 0.000000 -0.000000 1.000000
vn 0.000000 -0.000000 1.000000
vn -0.319864 0.469912 -0.822721
vn -0.319864 0.469912 -0.822721
vn -0.319864 0.469912 -0.822721
vn -0.319864 0.469912 -0.822721
vn 0.332506 0.476623 -0.813800
vn 0.332506 0.476623 -0.813800
vn 0.332506 0.476623 -0.813800
vn 0.332506 0.476623 -0.813800
vn 0.568528 0.009227 -0.822612
vn 0.568528 0.009227 -0.822612
vn 0.568528 0.009227 -0.822612
vn 0.568528 0.009227 -0.822612
vn 0.338049 -0.508419 -0.791980
vn 0.338049 -0.508419 -0.791980
vn 0.338049 -0.508419 -0.791980
vn 0.338049 -0.508419 -0.791980
vn -0.338556 -0.486263 -0.805561
vn -0.338556 -0.486263 -0.805561
vn -0.338556 -0.486263 -0.805561
vn -0.338556 -0.486263 -0.805561
vn -0.566813 0.006033 -0.823825
vn -0.566813 0.006033 -0.823825
vn -0.566813 0.006033 -0.823825
vn -0.566813 0.006033 -0.823825
vn 0.000000 -0.000000 -1.000000
vn 0.000000 -0.000000 -1.000000
vn 0.000000 -0.000000 -1.000000
vn 0.000000 -0.000000 -1.000000
vn 0.000000 -0.000000 -1.000000
vn 0.000000 -0.000000 -1.000000
vn 0.000000 -0.000000 -1.000000
vn 0.000000 -0.000000 -1.000000
s off
g polySurface2
usemtl gem22
f 25/33/89 26/34/90 27/35/91 28/36/92
f 25/33/93 29/37/94 30/38/95 26/34/96
f 29/37/97 31/39/98 32/40/99 30/38/100
f 31/39/101 33/41/102 34/42/103 32/40/104
f 33/41/105 35/43/106 36/44/107 34/42/108
f 35/43/109 28/36/110 27/35/111 36/44/112
f 35/43/113 33/41/114 31/39/115 28/36/116
f 29/37/117 25/33/118 28/36/119 31/39/120
f 37/45/121 38/48/122 27/47/123 26/46/124
f 37/45/125 26/46/126 30/50/127 39/49/128
f 39/49/129 30/50/130 32/52/131 40/51/132
f 40/51/133 32/52/134 34/54/135 41/53/136
f 41/53/137 34/54/138 36/56/139 42/55/140
f 42/55/141 36/56/142 27/47/143 38/48/144
f 42/55/145 38/48/146 40/51/147 41/53/148
f 39/49/149 40/51/150 38/48/151 37/45/152
g default
v 13.004073 -0.093355 1.098395
v 12.915724 4.357404 -0.000000
v 8.757491 0.018845 0.000000
v 17.050011 0.024595 -0.000000
v 12.911153 -4.321576 0.000000
v 13.004073 -0.093355 -1.098395
vt 0.510803 0.488018
vt 0.501289 0.967297
vt 0.053511 0.500100
vt 0.946490 0.500719
vt 0.500797 0.032703
vt 0.510803 0.488018
vt 0.501289 0.967297
vt 0.053511 0.500100
vt 0.946490 0.500719
vt 0.500797 0.032703
vn -0.238146 0.228248 0.944028
vn -0.238146 0.228248 0.944028
vn -0.238146 0.228248 0.944028
vn 0.248115 0.236747 0.939356
vn 0.248115 0.236747 0.939356
vn 0.248115 0.236747 0.939356
vn 0.260535 -0.248108 0.933040
vn 0.260535 -0.248108 0.933040
vn 0.260535 -0.248108 0.933040
vn -0.249093 -0.238375 0.938685
vn -0.249093 -0.238375 0.938685
vn -0.249093 -0.238375 0.938685
vn -0.238146 0.228248 -0.944028
vn -0.238146 0.228248 -0.944028
vn -0.238146 0.228248 -0.944028
vn 0.248115 0.236747 -0.939356
vn 0.248115 0.236747 -0.939356
vn 0.248115 0.236747 -0.939356
vn 0.260535 -0.248108 -0.933040
vn 0.260535 -0.248108 -0.933040
vn 0.260535 -0.248108 -0.933040
vn -0.249093 -0.238375 -0.938685
vn -0.249093 -0.238375 -0.938685
vn -0.249093 -0.238375 -0.938685
s off
g polySurface4
usemtl gem44
f 43/57/153 44/58/154 45/59/155
f 43/57/156 46/60/157 44/58/158
f 43/57/159 47/61/160 46/60/161
f 43/57/162 45/59/163 47/61/164
f 48/62/165 45/64/166 44/63/167
f 48/62/168 44/63/169 46/65/170
f 48/62/171 46/65/172 47/66/173
f 48/62/174 47/66/175 45/64/176
g default
v -4.640949 3.299687 -0.000000
v -4.633470 3.870504 0.297756
v -7.856419 -0.062938 0.297756
v -7.400996 -0.089796 0.000000
v -4.627699 4.504406 0.000000
v -8.364177 -0.067083 0.000000
v -1.916620 -0.085568 0.000000
v -1.407000 -0.052128 0.297756
v -0.898722 -0.048652 -0.000000
v -4.625779 -3.985062 0.297756
v -4.617355 -3.442567 0.000000
v -4.665952 -4.632170 -0.000000
v -4.718648 -0.082986 1.275067
v -4.666015 3.203009 0.000000
v -4.640949 3.299687 0.000000
v -4.633470 3.870504 -0.297756
v -7.856419 -0.062938 -0.297756
v -7.400996 -0.089796 -0.000000
v -1.916620 -0.085568 -0.000000
v -1.407000 -0.052128 -0.297756
v -4.625779 -3.985062 -0.297756
v -4.617355 -3.442567 -0.000000
v -4.718648 -0.082986 -1.275067
v -4.666015 3.203009 0.000000
vt 0.499097 0.819656
vt 0.499808 0.873904
vt 0.193516 0.500090
vt 0.236797 0.497537
vt 0.500356 0.934146
vt 0.145261 0.499696
vt 0.758003 0.497939
vt 0.806435 0.501117
vt 0.854739 0.501447
vt 0.501339 0.178908
vt 0.500539 0.127352
vt 0.496721 0.065854
vt 0.496715 0.810468
vt 0.491713 0.498185
vt 0.499097 0.819656
vt 0.499808 0.873904
vt 0.193516 0.500090
vt 0.236797 0.497537
vt 0.500356 0.934146
vt 0.145261 0.499696
vt 0.758003 0.497939
vt 0.806435 0.501117
vt 0.854739 0.501447
vt 0.501339 0.178908
vt 0.500539 0.127352
vt 0.496721 0.065854
vt 0.496715 0.810468
vt 0.491713 0.498185
vn 0.491515 -0.401579 0.772753
vn 0.491515 -0.401579 0.772753
vn 0.491515 -0.401579 0.772753
vn 0.491515 -0.401579 0.772753
vn -0.466871 0.382032 0.797548
vn -0.466871 0.382032 0.797548
vn -0.466871 0.382032 0.797548
vn -0.466871 0.382032 0.797548
vn -0.469599 -0.382393 0.795772
vn -0.469598 -0.382393 0.795772
vn -0.469599 -0.382393 0.795772
vn -0.469599 -0.382393 0.795772
vn 0.460954 0.378275 0.802764
vn 0.460954 0.378275 0.802764
vn 0.460954 0.378275 0.802764
vn 0.460954 0.378275 0.802764
vn 0.505226 0.417679 0.755176
vn 0.505226 0.417679 0.755176
vn 0.505226 0.417679 0.755176
vn 0.505226 0.417679 0.755176
vn -0.449325 -0.366824 0.814584
vn -0.449325 -0.366824 0.814584
vn -0.449325 -0.366824 0.814584
vn -0.449325 -0.366824 0.814584
vn -0.498887 0.405102 0.766162
vn -0.498887 0.405102 0.766162
vn -0.498887 0.405102 0.766162
vn -0.498887 0.405102 0.766162
vn 0.472953 -0.387961 0.791076
vn 0.472953 -0.387961 0.791076
vn 0.472953 -0.387961 0.791076
vn 0.472953 -0.387961 0.791076
vn 0.380903 0.318452 0.868044
vn 0.380903 0.318452 0.868044
vn 0.380903 0.318452 0.868044
vn 0.380903 0.318452 0.868044
vn 0.392727 -0.315952 0.863678
vn 0.392727 -0.315952 0.863678
vn 0.392727 -0.315952 0.863678
vn -0.399027 0.331429 0.854945
vn -0.399027 0.331429 0.854945
vn -0.399027 0.331429 0.854945
vn -0.399027 0.331429 0.854945
vn -0.403781 -0.335239 0.851220
vn -0.403781 -0.335239 0.851220
vn -0.403781 -0.335239 0.851220
vn 0.491515 -0.401579 -0.772753
vn 0.491515 -0.401579 -0.772753
vn 0.491515 -0.401579 -0.772753
vn 0.491515 -0.401579 -0.772753
vn -0.466871 0.382032 -0.797548
vn -0.466871 0.382032 -0.797548
vn -0.466871 0.382032 -0.797548
vn -0.466871 0.382032 -0.797548
vn -0.469599 -0.382393 -0.795772
vn -0.469599 -0.382393 -0.795772
vn -0.469599 -0.382393 -0.795772
vn -0.469599 -0.382393 -0.795772
vn 0.460954 0.378275 -0.802764
vn 0.460954 0.378275 -0.802764
vn 0.460954 0.378275 -0.802764
vn 0.460954 0.378275 -0.802764
vn 0.505226 0.417679 -0.755176
vn 0.505226 0.417679 -0.755176
vn 0.505226 0.417679 -0.755176
vn 0.505226 0.417679 -0.755176
vn -0.449325 -0.366824 -0.814584
vn -0.449325 -0.366824 -0.814584
vn -0.449325 -0.366824 -0.814584
vn -0.449325 -0.366824 -0.814584
vn -0.498887 0.405102 -0.766162
vn -0.498887 0.405102 -0.766162
vn -0.498887 0.405102 -0.766162
vn -0.498887 0.405102 -0.766162
vn 0.472953 -0.387961 -0.791076
vn 0.472953 -0.387961 -0.791076
vn 0.472953 -0.387961 -0.791076
vn 0.472953 -0.387961 -0.791076
vn 0.380903 0.318452 -0.868044
vn 0.380903 0.318452 -0.868044
vn 0.380903 0.318452 -0.868044
vn 0.380903 0.318452 -0.868044
vn 0.392727 -0.315952 -0.863678
vn 0.392727 -0.315952 -0.863678
vn 0.392727 -0.315952 -0.863678
vn -0.399027 0.331429 -0.854945
vn -0.399027 0.331429 -0.854945
vn -0.399027 0.331429 -0.854945
vn -0.399027 0.331429 -0.854945
vn -0.403781 -0.335239 -0.851220
vn -0.403781 -0.335239 -0.851220
vn -0.403781 -0.335239 -0.851220
s off
g polySurface3
usemtl gem33
f 49/67/177 50/68/178 51/69/179 52/70/180
f 51/69/181 50/68/182 53/71/183 54/72/184
f 49/67/185 55/73/186 56/74/187 50/68/188
f 50/68/189 56/74/190 57/75/191 53/71/192
f 59/76/193 52/70/194 51/69/195 58/77/196
f 58/77/197 51/69/198 54/72/199 60/78/200
f 55/73/201 59/76/202 58/77/203 56/74/204
f 56/74/205 58/77/206 60/78/207 57/75/208
f 62/79/209 61/80/210 55/73/211 49/67/212
f 61/80/213 59/76/214 55/73/215
f 61/80/216 62/79/217 49/67/218 52/70/219
f 59/76/220 61/80/221 52/70/222
f 63/81/223 66/84/224 65/83/225 64/82/226
f 65/83/227 54/86/228 53/85/229 64/82/230
f 63/81/231 64/82/232 68/88/233 67/87/234
f 64/82/235 53/85/236 57/89/237 68/88/238
f 70/90/239 69/91/240 65/83/241 66/84/242
f 69/91/243 60/92/244 54/86/245 65/83/246
f 67/87/247 68/88/248 69/91/249 70/90/250
f 68/88/251 57/89/252 60/92/253 69/91/254
f 72/93/255 63/81/256 67/87/257 71/94/258
f 71/94/259 67/87/260 70/90/261
f 71/94/262 66/84/263 63/81/264 72/93/265
f 70/90/266 66/84/267 71/94/268
